<!DOCTYPE svg PUBLIC "-//W3C//DTD SVG 1.1//EN" "http://www.w3.org/Graphics/SVG/1.1/DTD/svg11.dtd">
<!-- Uploaded to: SVG Repo, www.svgrepo.com, Transformed by: SVG Repo Mixer Tools -->
<svg height="162px" width="162px" version="1.1" id="Layer_1" xmlns="http://www.w3.org/2000/svg" xmlns:xlink="http://www.w3.org/1999/xlink" viewBox="-49.5 -49.5 594.00 594.00" xml:space="preserve" fill="#000000" stroke="#000000" stroke-width="4.455">
<g id="SVGRepo_bgCarrier" stroke-width="0"/>
<g id="SVGRepo_tracerCarrier" stroke-linecap="round" stroke-linejoin="round"/>
<g id="SVGRepo_iconCarrier"> <g> <path style="fill:#ffffff;" d="M180,107.5c0-37.22,30.28-67.5,67.5-67.5S315,70.28,315,107.5V175h40v-67.5 C355,48.224,306.776,0,247.5,0S140,48.224,140,107.5V175h40V107.5z"/> <path style="fill:#ffcf24;" d="M247.5,175v96.431c22.056,0,40,17.944,40,40c0,14.773-8.056,27.691-20,34.619v50.566h-20V495H425 V175H247.5z"/> <path style="fill:#ffcf24;" d="M227.5,396.616V346.05c-11.944-6.927-20-19.846-20-34.619c0-22.056,17.944-40,40-40V175H70v320 h177.5v-98.384H227.5z"/> <path style="fill:#ffffff;" d="M207.5,311.431c0,14.773,8.056,27.692,20,34.619v50.566h40V346.05c11.944-6.927,20-19.846,20-34.619 c0-22.056-17.944-40-40-40C225.444,271.431,207.5,289.375,207.5,311.431z"/> </g> </g>
</svg>